<svg width="38" height="48" viewBox="0 0 38 48" fill="none" xmlns="http://www.w3.org/2000/svg">
<path d="M36.1038 18.3327C35.8903 29.8186 25.4914 41.4126 20.8022 46.063C20.2047 46.6587 19.3966 46.9953 18.5529 47C17.7091 47.0046 16.8974 46.677 16.2933 46.0879C11.5542 41.4542 1 29.838 1 18.3327C1.05803 13.7158 2.93279 9.30776 6.2181 6.06348C9.50341 2.8192 13.9347 1 18.5519 1C23.1691 1 27.6004 2.8192 30.8857 6.06348C34.171 9.30776 36.0458 13.7158 36.1038 18.3327Z" fill="#FFFBF5" stroke="#94661C" stroke-width="2" stroke-miterlimit="10"/>
<rect x="7.30066" y="9.1008" width="22.0524" height="22.0524" rx="11.0262" fill="#94661C"/>
<g clip-path="url(#clip0_1149_7445)">
<path d="M12.3945 14.9265V23.5103L17.823 25.0549V16.547L12.3945 14.9265Z" fill="white"/>
<path d="M18.7914 16.5217V25.0549L24.133 23.409L24.2153 14.9265L18.7914 16.5217Z" fill="#EFEFEF"/>
<g clip-path="url(#clip1_1149_7445)">
<path d="M21.2493 15.8014V18.5003L21.8947 17.5315L22.5927 18.0851V15.3862L21.2493 15.8014Z" fill="#94661C"/>
</g>
</g>
<defs>
<clipPath id="clip0_1149_7445">
<rect width="11.8165" height="10.1284" fill="white" transform="translate(12.3945 14.9265)"/>
</clipPath>
<clipPath id="clip1_1149_7445">
<rect width="1.34348" height="3.11416" fill="white" transform="translate(21.2493 15.3862)"/>
</clipPath>
</defs>
</svg>