<svg width="24" height="24" viewBox="0 0 24 24" fill="none" xmlns="http://www.w3.org/2000/svg">
<path d="M20.7689 19.3448L17.3591 15.945C18.6112 14.3331 19.202 12.3045 19.011 10.2723C18.82 8.24013 17.8616 6.35715 16.331 5.00677C14.8004 3.6564 12.8126 2.94017 10.7725 3.00392C8.73236 3.06767 6.79321 3.90661 5.34991 5.34991C3.90661 6.79321 3.06767 8.73236 3.00392 10.7725C2.94017 12.8126 3.6564 14.8004 5.00677 16.331C6.35715 17.8616 8.24013 18.82 10.2723 19.011C12.3045 19.202 14.3331 18.6112 15.945 17.3591L19.3448 20.7589C19.5366 20.9232 19.7834 21.009 20.0358 20.9993C20.2882 20.9895 20.5277 20.8849 20.7063 20.7063C20.8849 20.5277 20.9895 20.2882 20.9993 20.0358C21.009 19.7834 20.9232 19.5366 20.7589 19.3448H20.7689ZM5.01355 11.0309C5.01355 9.84075 5.36646 8.67736 6.02765 7.68782C6.68884 6.69828 7.62861 5.92703 8.72813 5.47159C9.82766 5.01615 11.0375 4.89699 12.2048 5.12917C13.372 5.36135 14.4442 5.93444 15.2857 6.77598C16.1273 7.61751 16.7004 8.6897 16.9326 9.85694C17.1647 11.0242 17.0456 12.2341 16.5901 13.3336C16.1347 14.4331 15.3634 15.3729 14.3739 16.0341C13.3844 16.6953 12.221 17.0482 11.0309 17.0482C9.43497 17.0482 7.90444 16.4142 6.77598 15.2857C5.64751 14.1573 5.01355 12.6268 5.01355 11.0309Z" fill="#7E808A"/>
</svg>
