<svg width="200" height="80" viewBox="0 0 319 69" fill="none" xmlns="http://www.w3.org/2000/svg">
<path d="M116.781 36.9541H105.954V45.5035H121.979V49.1124H85.6333V45.5035H101.658V36.9541H90.8317V18.0507H116.781V36.9541ZM95.042 33.3452H112.571V21.6595H95.042V33.3452Z" fill="#94661C"/>
<path d="M156.399 32.6578H129.633V17.0196H155.969V20.6284H133.887V29.049H156.399V32.6578ZM140.761 54.3967V41.2503H124.736V37.6414H161.082V41.2503H145.057V54.3967H140.761Z" fill="#94661C"/>
<path d="M177.242 36.5244C175.61 36.5244 174.149 36.281 172.86 35.7941C171.571 35.3072 170.469 34.6627 169.552 33.8608C168.636 33.0588 167.934 32.1423 167.447 31.1112C166.96 30.0801 166.717 29.006 166.717 27.889V25.9128C166.717 24.7957 166.96 23.7217 167.447 22.6906C167.934 21.6595 168.636 20.743 169.552 19.941C170.469 19.139 171.571 18.4946 172.86 18.0077C174.149 17.5208 175.61 17.2773 177.242 17.2773C178.875 17.2773 180.336 17.5208 181.624 18.0077C182.913 18.4946 184.016 19.139 184.933 19.941C185.849 20.743 186.551 21.6595 187.038 22.6906C187.525 23.7217 187.768 24.7957 187.768 25.9128V27.889C187.768 29.006 187.525 30.0801 187.038 31.1112C186.551 32.1423 185.849 33.0588 184.933 33.8608C184.016 34.6627 182.913 35.3072 181.624 35.7941C180.336 36.281 178.875 36.5244 177.242 36.5244ZM177.242 32.8297C178.13 32.8297 178.961 32.6865 179.734 32.4001C180.536 32.1136 181.223 31.7413 181.796 31.283C182.398 30.7961 182.856 30.2376 183.171 29.6075C183.515 28.9774 183.687 28.3186 183.687 27.6312V26.1705C183.687 25.4545 183.515 24.7814 183.171 24.1513C182.856 23.4925 182.398 22.934 181.796 22.4758C181.223 22.0175 180.536 21.6595 179.734 21.4017C178.961 21.1153 178.13 20.9721 177.242 20.9721C176.326 20.9721 175.481 21.1153 174.708 21.4017C173.934 21.6595 173.247 22.0175 172.645 22.4758C172.072 22.934 171.614 23.4925 171.271 24.1513C170.955 24.7814 170.798 25.4545 170.798 26.1705V27.6312C170.798 28.3186 170.955 28.9774 171.271 29.6075C171.614 30.2376 172.072 30.7961 172.645 31.283C173.247 31.7413 173.934 32.1136 174.708 32.4001C175.481 32.6865 176.326 32.8297 177.242 32.8297ZM190.861 45.1169C189.057 45.2887 187.21 45.4463 185.319 45.5895C183.429 45.704 181.424 45.8043 179.304 45.8902C177.214 45.9761 174.965 46.0477 172.559 46.105C170.182 46.1337 167.59 46.148 164.783 46.148V42.4532C167.619 42.4532 170.211 42.4389 172.559 42.4103C174.937 42.3816 177.156 42.3387 179.219 42.2814C181.281 42.1954 183.228 42.0952 185.061 41.9806C186.894 41.8661 188.699 41.7229 190.475 41.551L190.861 45.1169ZM192.924 54.3967V14.7855H197.134V54.3967H192.924Z" fill="#94661C"/>
<path d="M234.647 36.7392H223.262V45.5035H239.286V49.1124H202.94V45.5035H218.965V36.7392H207.838V18.0936H234.174V21.7024H212.091V33.1304H234.647V36.7392Z" fill="black"/>
<path d="M270.913 54.3967V30.7675H262.493V27.0298H270.913V14.7855H275.167V54.3967H270.913ZM253.986 34.5052C253.786 34.9921 253.485 35.479 253.084 35.9659C252.712 36.4528 252.182 37.0686 251.494 37.8133C250.607 38.7871 249.59 39.8468 248.444 40.9925C247.299 42.1095 245.995 43.3411 244.535 44.6873L241.742 41.8088C244.348 39.4888 246.611 37.2691 248.53 35.1496C249.189 34.405 249.733 33.7176 250.163 33.0874C250.592 32.4573 250.922 31.8415 251.151 31.2401C251.409 30.61 251.58 29.9798 251.666 29.3497C251.781 28.691 251.838 27.9749 251.838 27.2016V17.664H256.134V27.2016C256.134 28.0609 256.192 28.8342 256.306 29.5216C256.421 30.1803 256.607 30.8248 256.865 31.4549C257.123 32.0564 257.466 32.6721 257.896 33.3023C258.354 33.9037 258.913 34.5625 259.571 35.2785C260.488 36.281 261.447 37.2691 262.45 38.2429C263.452 39.1881 264.598 40.2335 265.887 41.3792L263.137 44.3006C261.648 42.9258 260.388 41.7372 259.357 40.7347C258.354 39.7036 257.438 38.7441 256.607 37.8563C256.006 37.1975 255.461 36.5817 254.974 36.0089C254.516 35.4361 254.201 34.9348 254.029 34.5052H253.986Z" fill="black"/>
<path d="M308.469 44.1717V14.7855H312.679V26.8579H318.265V30.5527H312.679V44.1717H308.469ZM291.671 50.3583H313.754V54.0101H287.418V42.1095H291.671V50.3583ZM306.364 37.2978C304.646 37.4696 302.984 37.6271 301.38 37.7703C299.805 37.8849 298.058 37.9851 296.139 38.0711C294.249 38.1284 292.101 38.1856 289.695 38.2429C287.289 38.2716 284.439 38.2859 281.145 38.2859V34.6341H289.05V26.4283H293.261V34.5482C294.435 34.5195 295.552 34.4909 296.612 34.4622C297.671 34.405 298.702 34.3477 299.705 34.2904C300.736 34.2045 301.767 34.1329 302.798 34.0756C303.829 33.9897 304.903 33.8894 306.02 33.7748L306.364 37.2978ZM298.115 30.4238C298.43 28.9344 298.659 27.488 298.803 26.0846C298.975 24.6812 299.06 23.3637 299.06 22.1321V20.4565H283.809V16.8048H303.271V21.5306C303.271 22.3039 303.242 23.1059 303.185 23.9365C303.156 24.7671 303.099 25.5977 303.013 26.4283C302.927 27.2589 302.812 28.0609 302.669 28.8342C302.555 29.6075 302.426 30.3092 302.283 30.9393L298.115 30.4238Z" fill="black"/>
<rect width="69" height="69" rx="5" fill="#94661C"/>
<g clip-path="url(#clip0_1155_13630)">
<path d="M8.52637 11.6292V50.3952L32.3892 57.3708V18.9479L8.52637 11.6292Z" fill="white"/>
<path d="M36.6458 18.8335V57.3708L60.1269 49.9378L60.4885 11.6292L36.6458 18.8335Z" fill="#EFEFEF"/>
<g clip-path="url(#clip1_1155_13630)">
<path d="M47.4507 15.5805V27.7693L50.2878 23.3939L53.3564 25.8941V13.7053L47.4507 15.5805Z" fill="#94661C"/>
</g>
</g>
<defs>
<clipPath id="clip0_1155_13630">
<rect width="51.9438" height="45.7416" fill="white" transform="translate(8.52637 11.6292)"/>
</clipPath>
<clipPath id="clip1_1155_13630">
<rect width="5.90576" height="14.064" fill="white" transform="translate(47.4507 13.7053)"/>
</clipPath>
</defs>
</svg>